 http://desibbrg.org/images/66952052392581364616.gif 
http://desibbrg.org/images/25178505928302413788.png 
http://desibbrg.org/images/42510196344161579570.png 
http://desibbrg.org/images/38417386930793446777.png 
http://desibbrg.org/images/58925088471506763598.png

Media Info - 
Video
ID : 1
Format : AVC
Format/Info : Advanced Video Codec
Format profile : High@L3.1
Format settings, CABAC : Yes
Format settings, ReFrames : 4 frames
Codec ID : V_MPEG4/ISO/AVC
Duration : 1h 45mn
Bit rate : 1 344 Kbps
Width : 1 280 pixels
Height : 544 pixels
Display aspect ratio : 2.35:1
Frame rate mode : Constant
Frame rate : 23.976 fps
Color space : YUV
Chroma subsampling : 4:2:0
Bit depth : 8 bits
Scan type : Progressive
Bits/(Pixel*Frame) : 0.081
Stream size : 982 MiB (73%)
Writing library : x264 core 130 r2273 b3065e6
Language : Hindi
Default : Yes
Forced : No

Audio
ID : 2
Format : AC-3
Format/Info : Audio Coding 3
Mode extension : CM (complete main)
Format settings, Endianness : Big
Codec ID : A_AC3
Duration : 1h 45mn
Bit rate mode : Constant
Bit rate : 448 Kbps
Channel(s) : 6 channels
Channel positions : Front: L C R, Side: L R, LFE
Sampling rate : 48.0 KHz
Bit depth : 16 bits
Compression mode : Lossy
Delay relative to video : 500ms
Stream size : 337 MiB (25%)
Language : Hindi
Default : Yes
Forced : No

Ripper : K@rtik

Seeding 24x7... Extreme Seeding...


Enjoy!
